<svg width="46" height="44" viewBox="0 0 46 44" fill="none" xmlns="http://www.w3.org/2000/svg">
<g id="akar-icons_github-fill">
<path id="Path" fill-rule="evenodd" clip-rule="evenodd" d="M22.5565 0C10.094 0 0 10.094 0 22.5565C0 32.5377 6.45679 40.9682 15.423 43.9569C16.5508 44.1543 16.9737 43.4776 16.9737 42.8855C16.9737 42.3498 16.9455 40.5734 16.9455 38.6843C11.2782 39.7276 9.81206 37.3028 9.36093 36.034C9.10717 35.3855 8.00755 33.3836 7.0489 32.8479C6.25942 32.4249 5.1316 31.3817 7.0207 31.3535C8.79702 31.3253 10.0658 32.9888 10.4888 33.6655C12.5188 37.0772 15.7613 36.1185 17.0583 35.5264C17.2557 34.0603 17.8478 33.0734 18.4963 32.5095C13.4775 31.9456 8.23311 30.0001 8.23311 21.3722C8.23311 18.9192 9.10717 16.8892 10.5451 15.3102C10.3196 14.7463 9.53011 12.4343 10.7707 9.33274C10.7707 9.33274 12.6598 8.74063 16.9737 11.6448C18.7783 11.1373 20.6956 10.8835 22.6129 10.8835C24.5302 10.8835 26.4475 11.1373 28.252 11.6448C32.5659 8.71243 34.455 9.33274 34.455 9.33274C35.6956 12.4343 34.9061 14.7463 34.6806 15.3102C36.1185 16.8892 36.9926 18.891 36.9926 21.3722C36.9926 30.0283 31.72 31.9456 26.7012 32.5095C27.5189 33.2144 28.2238 34.5678 28.2238 36.6825C28.2238 39.6994 28.1956 42.1242 28.1956 42.8855C28.1956 43.4776 28.6185 44.1825 29.7463 43.9569C34.224 42.4452 38.115 39.5672 40.8716 35.7283C43.6283 31.8892 45.1116 27.2825 45.1129 22.5565C45.1129 10.094 35.0189 0 22.5565 0Z" fill="white"/>
</g>
</svg>
